<svg width="20" height="20" viewBox="0 0 20 20" fill="none" xmlns="http://www.w3.org/2000/svg">
<path d="M19.7004 9.32022L9.43445 0.10955C9.35565 0.0393257 9.25511 0 9.14913 0H6.74433C6.54325 0 6.45086 0.258427 6.60303 0.393258L16.119 8.93258H0.217384C0.0978226 8.93258 0 9.03371 0 9.1573V10.8427C0 10.9663 0.0978226 11.0674 0.217384 11.0674H16.1163L6.60031 19.6067C6.44814 19.7444 6.54053 20 6.74161 20H9.22793C9.27956 20 9.33119 19.9803 9.36923 19.9438L19.7004 10.6798C19.7945 10.5952 19.8699 10.4908 19.9216 10.3735C19.9733 10.2562 20 10.1289 20 10C20 9.87113 19.9733 9.74376 19.9216 9.6265C19.8699 9.50923 19.7945 9.40479 19.7004 9.32022Z" fill="white"/>
</svg>
