<svg width="20" height="20" viewBox="0 0 20 20" fill="none" xmlns="http://www.w3.org/2000/svg">
<g clip-path="url(#clip0_8_74)">
<path fill-rule="evenodd" clip-rule="evenodd" d="M12.9425 7.68252C13.0007 7.74058 13.0469 7.80954 13.0784 7.88548C13.1099 7.96141 13.1261 8.04281 13.1261 8.12502C13.1261 8.20723 13.1099 8.28863 13.0784 8.36456C13.0469 8.44049 13.0007 8.50946 12.9425 8.56752L9.1925 12.3175C9.13444 12.3757 9.06547 12.4219 8.98954 12.4534C8.91361 12.4849 8.83221 12.5011 8.75 12.5011C8.66779 12.5011 8.58639 12.4849 8.51045 12.4534C8.43452 12.4219 8.36555 12.3757 8.3075 12.3175L6.4325 10.4425C6.37439 10.3844 6.32829 10.3154 6.29684 10.2395C6.26539 10.1636 6.24921 10.0822 6.24921 10C6.24921 9.91784 6.26539 9.83646 6.29684 9.76054C6.32829 9.68461 6.37439 9.61563 6.4325 9.55752C6.49061 9.49941 6.55959 9.45331 6.63552 9.42186C6.71144 9.39042 6.79282 9.37423 6.875 9.37423C6.95718 9.37423 7.03855 9.39042 7.11448 9.42186C7.1904 9.45331 7.25939 9.49941 7.3175 9.55752L8.75 10.9913L12.0575 7.68252C12.1156 7.62431 12.1845 7.57814 12.2605 7.54663C12.3364 7.51512 12.4178 7.4989 12.5 7.4989C12.5822 7.4989 12.6636 7.51512 12.7395 7.54663C12.8155 7.57814 12.8844 7.62431 12.9425 7.68252Z" fill="#699BF7"/>
<path d="M12.8412 3.14122L11.69 1.96122L12.5837 1.08872L13.3612 1.88497L14.4737 1.87122C14.9553 1.86552 15.4331 1.95617 15.8791 2.13783C16.3252 2.31949 16.7304 2.5885 17.0709 2.92904C17.4114 3.26958 17.6804 3.67478 17.8621 4.1208C18.0438 4.56682 18.1344 5.04466 18.1287 5.52622L18.1162 6.63872L18.9112 7.41622C19.2555 7.75268 19.5291 8.15458 19.7159 8.59828C19.9027 9.04198 19.999 9.51855 19.999 9.99997C19.999 10.4814 19.9027 10.958 19.7159 11.4017C19.5291 11.8454 19.2555 12.2473 18.9112 12.5837L18.115 13.3612L18.1287 14.4737C18.1344 14.9553 18.0438 15.4331 17.8621 15.8791C17.6804 16.3252 17.4114 16.7304 17.0709 17.0709C16.7304 17.4114 16.3252 17.6804 15.8791 17.8621C15.4331 18.0438 14.9553 18.1344 14.4737 18.1287L13.3612 18.1162L12.5837 18.9112C12.2473 19.2555 11.8454 19.5291 11.4017 19.7159C10.958 19.9027 10.4814 19.999 9.99997 19.999C9.51855 19.999 9.04198 19.9027 8.59828 19.7159C8.15458 19.5291 7.75268 19.2555 7.41622 18.9112L6.63872 18.115L5.52622 18.1287C5.04466 18.1344 4.56682 18.0438 4.1208 17.8621C3.67478 17.6804 3.26958 17.4114 2.92904 17.0709C2.5885 16.7304 2.31949 16.3252 2.13783 15.8791C1.95617 15.4331 1.86552 14.9553 1.87122 14.4737L1.88372 13.3612L1.08872 12.5837C0.744396 12.2473 0.470796 11.8454 0.283999 11.4017C0.0972024 10.958 0.000976562 10.4814 0.000976562 9.99997C0.000976562 9.51855 0.0972024 9.04198 0.283999 8.59828C0.470796 8.15458 0.744396 7.75268 1.08872 7.41622L1.88497 6.63872L1.87122 5.52622C1.86552 5.04466 1.95617 4.56682 2.13783 4.1208C2.31949 3.67478 2.5885 3.26958 2.92904 2.92904C3.26958 2.5885 3.67478 2.31949 4.1208 2.13783C4.56682 1.95617 5.04466 1.86552 5.52622 1.87122L6.63872 1.88372L7.41622 1.08872C7.75268 0.744396 8.15458 0.470796 8.59828 0.283999C9.04198 0.0972024 9.51855 0.000976562 9.99997 0.000976562C10.4814 0.000976562 10.958 0.0972024 11.4017 0.283999C11.8454 0.470796 12.2473 0.744396 12.5837 1.08872L11.69 1.96122C11.4699 1.73595 11.2071 1.55695 10.9168 1.43474C10.6266 1.31253 10.3149 1.24957 9.99997 1.24957C9.68506 1.24957 9.37333 1.31253 9.08311 1.43474C8.79288 1.55695 8.53002 1.73595 8.30997 1.96122L7.15997 3.14122L5.50997 3.12122C5.19519 3.1177 4.88289 3.17713 4.5914 3.296C4.29991 3.41488 4.03512 3.59082 3.81258 3.81347C3.59004 4.03612 3.41425 4.30101 3.29552 4.59256C3.1768 4.88411 3.11754 5.19644 3.12122 5.51122L3.14122 7.15872L1.96122 8.30997C1.73595 8.53002 1.55695 8.79288 1.43474 9.08311C1.31253 9.37333 1.24957 9.68506 1.24957 9.99997C1.24957 10.3149 1.31253 10.6266 1.43474 10.9168C1.55695 11.2071 1.73595 11.4699 1.96122 11.69L3.14122 12.84L3.12122 14.49C3.1177 14.8047 3.17713 15.1171 3.296 15.4085C3.41488 15.7 3.59082 15.9648 3.81347 16.1874C4.03612 16.4099 4.30101 16.5857 4.59256 16.7044C4.88411 16.8231 5.19644 16.8824 5.51122 16.8787L7.15872 16.8587L8.30997 18.0387C8.53002 18.264 8.79288 18.443 9.08311 18.5652C9.37333 18.6874 9.68506 18.7504 9.99997 18.7504C10.3149 18.7504 10.6266 18.6874 10.9168 18.5652C11.2071 18.443 11.4699 18.264 11.69 18.0387L12.84 16.8587L14.49 16.8787C14.8047 16.8822 15.1171 16.8228 15.4085 16.7039C15.7 16.5851 15.9648 16.4091 16.1874 16.1865C16.4099 15.9638 16.5857 15.6989 16.7044 15.4074C16.8231 15.1158 16.8824 14.8035 16.8787 14.4887L16.8587 12.8412L18.0387 11.69C18.264 11.4699 18.443 11.2071 18.5652 10.9168C18.6874 10.6266 18.7504 10.3149 18.7504 9.99997C18.7504 9.68506 18.6874 9.37333 18.5652 9.08311C18.443 8.79288 18.264 8.53002 18.0387 8.30997L16.8587 7.15997L16.8787 5.50997C16.8822 5.19519 16.8228 4.88289 16.7039 4.5914C16.5851 4.29991 16.4091 4.03512 16.1865 3.81258C15.9638 3.59004 15.6989 3.41425 15.4074 3.29552C15.1158 3.1768 14.8035 3.11754 14.4887 3.12122L12.8412 3.14122Z" fill="#699BF7"/>
</g>
<defs>
<clipPath id="clip0_8_74">
<rect width="20" height="20" fill="white"/>
</clipPath>
</defs>
</svg>
