<svg xmlns:xlink="http://www.w3.org/1999/xlink" xmlns="http://www.w3.org/2000/svg" fill="none" viewBox="0 0 28 28" width="28"  height="28" ><path d="m28 14c0-7.73281-6.2672-14-14-14-7.73281 0-14 6.26719-14 14 0 6.9891 5.11875 12.7805 11.8125 13.8305v-9.7836h-3.55469v-4.0469h3.55469v-3.0844c0-3.50818 2.0891-5.44685 5.2883-5.44685 1.5312 0 3.1336.27344 3.1336.27344v3.44531h-1.7664c-1.7391 0-2.2805 1.0801-2.2805 2.1875v2.625h3.8828l-.6207 4.0469h-3.2621v9.7836c6.6938-1.05 11.8125-6.8414 11.8125-13.8305z" fill="#1877f2"/><path d="m19.4496 18.0469.6207-4.0469h-3.8828v-2.625c0-1.1074.5414-2.1875 2.2805-2.1875h1.7664v-3.44531s-1.6024-.27344-3.1336-.27344c-3.1992 0-5.2883 1.93867-5.2883 5.44685v3.0844h-3.55469v4.0469h3.55469v9.7836c.7137.1121 1.4437.1695 2.1875.1695s1.4738-.0574 2.1875-.1695v-9.7836z" fill="#fff"/></svg>