<svg xmlns="http://www.w3.org/2000/svg" xmlns:xlink="http://www.w3.org/1999/xlink" fill="none" viewBox="0 0 28 28" width="28"  height="28" ><linearGradient id="a" gradientUnits="userSpaceOnUse" x1="21.875" x2="4.66667" y1="3.20833" y2="28"><stop offset="0" stop-color="#d82e7c"/><stop offset="1" stop-color="#fbb44d"/></linearGradient><mask id="b" height="28" maskUnits="userSpaceOnUse" width="28" x="0" y="0"><path clip-rule="evenodd" d="m0 14c0-7.73199 6.26801-14 14-14 7.732 0 14 6.26801 14 14 0 7.732-6.268 14-14 14-7.73199 0-14-6.268-14-14z" fill="#fff" fill-rule="evenodd"/></mask><path d="m0 14c0-7.73199 6.26801-14 14-14 7.732 0 14 6.26801 14 14 0 7.732-6.268 14-14 14-7.73199 0-14-6.268-14-14z" fill="url(#a)"/><g mask="url(#b)"><path clip-rule="evenodd" d="m14.0008 6.53333c-2.0278 0-2.2823.00886-3.0788.04511-.7949.0364-1.33745.16224-1.81221.34689-.4911.19071-.90768.44583-1.32271.86101-.41534.41503-.67045.83161-.86178 1.32255-.18512.47491-.31112 1.01761-.3469 1.81221-.03562.7965-.04495 1.0511-.04495 3.079 0 2.0278.00902 2.2815.04511 3.078.03655.7949.1624 1.3375.34689 1.8122.19087.4911.44598.9077.86117 1.3227.41487.4154.83145.6711 1.32223.8618.47507.1847 1.01785.3105 1.81255.3469.7965.0363 1.0508.0451 3.0785.0451 2.028 0 2.2817-.0088 3.0781-.0451.7949-.0364 1.3381-.1622 1.8132-.3469.491-.1907.9069-.4464 1.3218-.8618.4153-.415.6704-.8316.8618-1.3225.1835-.4749.3095-1.0177.3469-1.8123.0357-.7964.0451-1.0503.0451-3.0781 0-2.0279-.0094-2.2824-.0451-3.0788-.0374-.7949-.1634-1.3375-.3469-1.81226-.1914-.49109-.4465-.90767-.8618-1.3227-.4153-.41534-.8307-.67045-1.3222-.86101-.476-.18465-1.0189-.31049-1.8138-.34689-.7965-.03625-1.0501-.04511-3.0785-.04511zm-.6698 1.34557c.1301-.0002.27-.00014.421-.00007l.2488.00007c1.9936 0 2.2299.00716 3.0172.04294.728.03329 1.1231.15493 1.3863.25713.3485.13534.5969.29712.8581.55845.2613.26134.4231.51023.5587.85868.1022.26289.2241.658.2572 1.386.0358.7871.0435 1.0236.0435 3.0163s-.0077 2.2291-.0435 3.0162c-.0333.728-.155 1.1231-.2572 1.386-.1353.3485-.2974.5966-.5587.8578-.2613.2613-.5095.4231-.8581.5584-.2629.1027-.6583.224-1.3863.2573-.7871.0358-1.0236.0436-3.0172.0436-1.9938 0-2.23-.0078-3.0172-.0436-.728-.0336-1.12309-.1552-1.38645-.2574-.34845-.1354-.59734-.2971-.85867-.5585-.26134-.2613-.42312-.5096-.55876-.8582-.10221-.2629-.22401-.658-.25714-1.386-.03578-.7871-.04293-1.0236-.04293-3.0175s.00715-2.2291.04293-3.0163c.03329-.728.15493-1.12308.25714-1.38628.13533-.34845.29742-.59734.55876-.85867.26133-.26134.51022-.42312.85867-.55876.2632-.10267.65845-.22401 1.38645-.25745.6888-.03111.9558-.04045 2.3474-.042zm3.7595 2.1355c0-.49485.4013-.89572.896-.89572v-.00031c.4947 0 .896.40134.896.89603 0 .4946-.4013.896-.896.896s-.896-.4014-.896-.896zm-3.0898.1512c-2.1176.0001-3.8344 1.7169-3.8344 3.8345s1.7169 3.8337 3.8345 3.8337 3.8339-1.7161 3.8339-3.8337-1.7164-3.8345-3.834-3.8345zm2.489 3.8345c0-1.3747-1.1144-2.489-2.4889-2.489-1.3747 0-2.4889 1.1143-2.4889 2.489 0 1.3745 1.1142 2.4889 2.4889 2.4889 1.3745 0 2.4889-1.1144 2.4889-2.4889z" fill="#fff" fill-rule="evenodd"/></g></svg>