<svg xmlns:xlink="http://www.w3.org/1999/xlink" xmlns="http://www.w3.org/2000/svg" viewBox="0 0 24 24" class="selling-points__list-item--svg" width="24"  height="24" ><path d="M8.918 12.2a3.905 3.905 0 016.615 2.13 3.264 3.264 0 01-.646 6.462h-.017a4.29 4.29 0 01-1.926-.508 2.75 2.75 0 00-2.53 0 4.286 4.286 0 01-1.926.508H8.47a3.264 3.264 0 01-.646-6.463 3.906 3.906 0 011.093-2.128zm2.761.252a2.51 2.51 0 00-2.51 2.51.698.698 0 01-.698.698 1.869 1.869 0 00-.007 3.737c.452-.012.895-.13 1.293-.344l.01-.005a4.146 4.146 0 013.824 0l.009.005c.399.214.842.332 1.295.344a1.869 1.869 0 00-.008-3.737.698.698 0 01-.698-.698 2.51 2.51 0 00-2.51-2.51zm-8.06-3.12a2.622 2.622 0 112.007 4.845 2.622 2.622 0 01-2.007-4.845zm1.003 1.196a1.226 1.226 0 100 2.452 1.226 1.226 0 000-2.452zm1.995-5.76a2.622 2.622 0 113.709 3.709 2.622 2.622 0 01-3.709-3.709zm1.855.627a1.227 1.227 0 100 2.454 1.227 1.227 0 000-2.454zm4.561-.627a2.622 2.622 0 113.708 3.709 2.622 2.622 0 01-3.708-3.709zm1.854.627a1.227 1.227 0 100 2.454 1.227 1.227 0 000-2.454zM17.523 9.9a2.622 2.622 0 113.709 3.71 2.622 2.622 0 01-3.709-3.71zm1.855.628a1.227 1.227 0 100 2.454 1.227 1.227 0 000-2.454z" fill-rule="evenodd" fill="#4E2096"></path></svg>