<svg xmlns:xlink="http://www.w3.org/1999/xlink" data-v-6579759f="" xmlns="http://www.w3.org/2000/svg" fill-rule="evenodd" viewBox="0 0 24 24" class="mr-4" width="24"  height="24" ><path d="M11.768 2.045a.625.625 0 01.464 0l9.375 3.75a.625.625 0 010 1.16l-9.375 3.75a.625.625 0 01-.464 0l-9.375-3.75a.625.625 0 010-1.16l9.375-3.75zm-7.46 4.33L12 9.452l7.692-3.077L12 3.298 4.308 6.375z" fill="#CCC7C1"></path> <path d="M2.275 5.857a.625.625 0 01.582-.062l9.375 3.75a.625.625 0 01.393.58v11.25a.625.625 0 01-.857.58l-9.375-3.75a.625.625 0 01-.393-.58V6.375c0-.207.103-.401.275-.518zm.975 1.441v9.904l8.125 3.25v-9.904L3.25 7.298z" fill="#CCC7C1"></path> <path d="M21.725 5.857c.172.117.275.31.275.518v11.25a.625.625 0 01-.393.58l-9.375 3.75a.625.625 0 01-.857-.58v-11.25c0-.256.156-.485.393-.58l9.375-3.75a.625.625 0 01.582.062zm-9.1 4.691v9.904l8.125-3.25V7.298l-8.125 3.25z" fill="#CCC7C1"></path> <path d="M7.2 4.08a.625.625 0 01.813-.348l9.375 3.75a.625.625 0 01-.464 1.16l-9.375-3.75A.625.625 0 017.2 4.08zm12.568 11.438a.625.625 0 01-.348.812l-1.563.625a.625.625 0 11-.464-1.16l1.562-.625a.625.625 0 01.813.348z" fill="#CCC7C1"></path></svg>