<svg xmlns:xlink="http://www.w3.org/1999/xlink" data-v-5b2c5d7e="" xmlns="http://www.w3.org/2000/svg" fill-rule="evenodd" viewBox="0 0 24 24" class="fill-primary" width="24"  height="24" ><path d="M4.929 4.929A10 10 0 1119.07 19.07 10 10 0 014.93 4.93zM12 3.25a8.75 8.75 0 100 17.5 8.75 8.75 0 000-17.5zm4.192 4.559a.625.625 0 010 .884l-7.5 7.5a.625.625 0 01-.884-.884l7.5-7.5a.625.625 0 01.884 0z" fill="#4E2096"></path> <path d="M7.808 7.809a.625.625 0 01.884 0l7.5 7.5a.625.625 0 01-.884.884l-7.5-7.5a.625.625 0 010-.884z" fill="#4E2096"></path></svg>