<svg xmlns:xlink="http://www.w3.org/1999/xlink" xmlns="http://www.w3.org/2000/svg" viewBox="0 0 24 24" class="cart-link__icon fill-grey" width="24"  height="24" ><path d="M3.541 3.333a.667.667 0 01.658.555l2.344 13.777a2 2 0 001.972 1.665h8.818a.667.667 0 000-1.333H8.515a.666.666 0 01-.658-.555L5.513 3.664A2 2 0 003.541 2h-.874a.667.667 0 000 1.333h.874z" fill-rule="evenodd" clip-rule="evenodd" fill="#CCC7C1"></path> <path d="M15.666 20.664a.334.334 0 100 .667.334.334 0 000-.667z" fill="#CCC7C1"></path> <path d="M15.601 21.324a.334.334 0 01.065-.66.332.332 0 01.334.333.333.333 0 01-.399.327zm.772-1.034a1 1 0 10-1.414 1.414 1 1 0 001.415-1.414zM9 19.997a1 1 0 110 2 1 1 0 010-2zM20.666 5.994A1.333 1.333 0 0121.96 7.65l-1.289 5.156a3.333 3.333 0 01-3.233 2.524H6.708a.667.667 0 110-1.333h10.73a2 2 0 001.94-1.514l1.289-5.156H5.347a.667.667 0 010-1.333h15.32z" fill-rule="evenodd" clip-rule="evenodd" fill="#CCC7C1"></path></svg>