<svg xmlns:xlink="http://www.w3.org/1999/xlink" xmlns="http://www.w3.org/2000/svg" fill-rule="evenodd" viewBox="0 0 24 24" class="selling-points__list-item--svg" width="24"  height="24" ><path d="M3.875 6.25a.625.625 0 00-.625.625v11.25c0 .345.28.625.625.625h16.25c.345 0 .625-.28.625-.625V6.875a.625.625 0 00-.625-.625H3.875zM2 6.875C2 5.839 2.84 5 3.875 5h16.25C21.16 5 22 5.84 22 6.875v11.25C22 19.16 21.16 20 20.125 20H3.875A1.875 1.875 0 012 18.125V6.875z" fill="#4E2096"></path> <path d="M2 9.375c0-.345.28-.625.625-.625h18.75a.625.625 0 110 1.25H2.625A.625.625 0 012 9.375zm3.75 3.75c0-.345.28-.625.625-.625h6.875a.625.625 0 110 1.25H6.375a.625.625 0 01-.625-.625zm0 2.5c0-.345.28-.625.625-.625h4.375a.625.625 0 110 1.25H6.375a.625.625 0 01-.625-.625z" fill="#4E2096"></path></svg>