<svg xmlns:xlink="http://www.w3.org/1999/xlink" data-v-6579759f="" xmlns="http://www.w3.org/2000/svg" viewBox="0 0 24 24" class="mr-4" width="24"  height="24" ><g fill-rule="evenodd" fill="#CCC7C1"><path d="M19.426 10.906a.625.625 0 01.674.573 8.125 8.125 0 01-15.487 4.04.625.625 0 111.137-.52 6.875 6.875 0 0013.104-3.419.625.625 0 01.572-.674zm-4.354-4.932a6.875 6.875 0 00-9.947 6.156.625.625 0 11-1.25.002 8.125 8.125 0 0115.512-3.39.625.625 0 11-1.136.52 6.875 6.875 0 00-3.18-3.288z" fill="#CCC7C1"></path> <path d="M19.058 11.064a.625.625 0 01.884 0l1.875 1.875a.625.625 0 01-.884.884L19.5 12.39l-1.433 1.433a.625.625 0 01-.884-.884l1.875-1.875zM2.183 9.814a.625.625 0 01.884 0L4.5 11.247l1.433-1.433a.625.625 0 11.884.884l-1.875 1.875a.625.625 0 01-.884 0l-1.875-1.875a.625.625 0 010-.884z" fill="#CCC7C1"></path></g> <g clip-path="url(#sriconsubscription1)" fill="#CCC7C1"><path d="M12 14.865l-2.663-2.777a1.576 1.576 0 112.228-2.23l.435.435.435-.434a1.575 1.575 0 012.229 2.228L12 14.865z" fill="#CCC7C1"></path></g> <defs><clipPath id="sriconsubscription1"><path d="M0 0h6.667v6.667H0z" transform="translate(8.667 8.798)"></path></clipPath></defs></svg>