<svg xmlns:xlink="http://www.w3.org/1999/xlink" data-v-6579759f="" xmlns="http://www.w3.org/2000/svg" fill-rule="evenodd" viewBox="0 0 24 24" class="mr-4" width="24"  height="24" ><path d="M3.875 3.25a.625.625 0 00-.625.625v12.5a.625.625 0 00.625.625h2.5c.345 0 .625.28.625.625v2.5l4-3a.625.625 0 01.375-.125h8.75a.625.625 0 00.625-.625v-12.5a.625.625 0 00-.625-.625H3.875zm-1.326-.7c.352-.352.829-.55 1.326-.55h16.25A1.875 1.875 0 0122 3.875v12.5a1.875 1.875 0 01-1.875 1.875h-8.542L6.75 21.875a.625.625 0 01-1-.5V18.25H3.875A1.875 1.875 0 012 16.375v-12.5c0-.497.198-.974.55-1.326zm9.581 3.205a1.875 1.875 0 00-2.005 1.87.625.625 0 01-1.25 0 3.125 3.125 0 015.993-1.241c.227.525.306 1.104.227 1.671a3.125 3.125 0 01-2.053 2.517.625.625 0 00-.417.59v.213a.625.625 0 11-1.25 0v-.213a1.876 1.876 0 011.25-1.769 1.875 1.875 0 00-.496-3.638zm-.65 7.653a.937.937 0 111.04 1.559.937.937 0 01-1.04-1.559zm.64 1.068a.308.308 0 00.169-.169.312.312 0 10-.17.17z" fill="#CCC7C1"></path></svg>