<svg xmlns:xlink="http://www.w3.org/1999/xlink" width="142" height="32" viewBox="0 0 142 32" fill="none" xmlns="http://www.w3.org/2000/svg" class="logo__image"><g clip-path="url(#logo-petlove-purple_svg__clip0_2_12308)" fill="#CCC7C1"><path d="M132.035 0c1.599.024 2.952 1.104 4.047 2.51.227.29.726.411.957.125C139.175 0 142 .608 141.997 3.377c.163 5.619-8.224 13.818-10.269 7.235-.898-2.894-3.002-4.854-3.096-7.013-.084-1.945 1.456-3.627 3.404-3.599h-.001z" fill="#EB5B53" data-darkreader-inline-fill="" style="--darkreader-inline-fill:#eb5b53;"></path><path d="M1.075 28.134c0-2.047.336-2.518 1.309-3.356.805-.67.906-1.343.906-2.484V14.27c0-1.713-.1-2.25-1.275-2.283C.773 11.92 0 11.45 0 10.242c-.034-1.544.771-2.752 1.981-3.76.94-.773 2.215-1.309 3.457-1.309 1.679 0 2.72.906 2.752 2.249 0 .805.17.94.504.94.47 0 .67-.57 1.075-1.107.805-1.275 2.248-2.35 4.397-2.35 4.566 0 7.419 3.727 7.419 9.533 0 5.807-2.485 9.837-7.889 9.837-2.887-.034-2.953-1.377-3.726-1.343-.771.067-.771.67-.739 1.443.034.504.201.84 1.007 1.31 1.141.637 1.679 1.308 1.679 2.919 0 1.61-.739 2.651-3.19 2.685-3.255 0-7.654-.402-7.654-3.155h.002zm13.26-13.46c-.437-2.25-1.243-3.727-3.055-3.39-1.645.301-1.914 1.946-1.645 3.893.335 2.752 1.108 3.592 2.954 3.356 1.711-.167 2.182-1.544 1.745-3.861v.002zM44.55 18.466c0-1.88.368-3.424.368-5.472 0-1.006-.167-.906-1.343-.94-1.242-.066-1.242-1.075-1.242-2.585 0-2.518.47-2.283 3.793-4.028 2.182-1.174 3.39-2.048 4.934-2.048.705 0 1.31.336 1.31 1.31 0 1.342.334 1.94 1.845 1.94 1.947 0 2.686 0 2.686 1.645 0 .94-.1 1.476-.167 2.786-.1 1.913-1.075 1.913-3.056 1.913-2.316 0-1.846-.699-1.913 1.484 0 .704-.066 1.409-.066 2.047 0 1.041.604 1.578 1.544 1.578.873 0 1.846-.235 2.585-.235.638 0 1.006.336.972 1.745-.032 2.988-1.979 5.104-5.504 5.104-3.894 0-6.747-2.35-6.747-6.244zM58.28 21.253c0-1.208.066-1.947 1.006-2.752.739-.639.84-1.31.94-2.787.033-1.141.033-2.317.033-3.591 0-1.377 0-3.693-.033-4.97-.034-1.04-.201-1.241-1.141-1.308-1.075-.034-1.814-.403-1.814-1.711 0-2.717 10.206-6.803 10.206-1.545 0 .907-.101 2.384-.27 5.002-.201 2.585-.503 6.444-.369 8.828.067.973.202 1.377.84 1.947.705.604 1.073 1.242 1.073 2.686 0 2.484-.84 3.424-5.27 3.424-3.928 0-5.203-.336-5.203-3.223h.002zM69.626 15.01c0-5.841 3.02-10.14 9.668-10.071 6.412.067 9.366 4.196 9.366 10.07 0 5.875-3.056 9.87-9.569 9.87-6.513 0-9.466-3.928-9.466-9.87h.001zm12.018-.604c-.906-2.888-1.78-4.029-3.526-3.558-1.61.402-2.047 2.114-1.375 4.902.67 2.585 1.812 3.49 3.491 3.088 1.812-.402 2.148-1.947 1.41-4.431v-.002zM93.896 21.32c-.604-1.88-1.678-5.07-2.619-7.957-.469-1.544-.704-1.913-1.343-2.416-.402-.336-.57-.873-.57-2.35 0-2.619.973-3.223 5.606-3.223 4.095 0 4.834.806 4.834 2.887 0 1.208-.134 1.78-.74 2.35-.434.437-.502.805-.334 1.679.335 1.544.772 3.29 1.142 4.666.201.907.269 1.243.605 1.243.436 0 .538-.504.84-1.41.503-1.578.571-1.713 1.141-3.861.302-1.142.034-1.746-.604-2.35-.334-.402-.638-.94-.638-2.216 0-2.048.503-2.921 4.8-2.921 3.056 0 3.324.873 3.324 2.72 0 1.443-.369 2.047-.772 2.518-.571.638-.738.94-1.175 2.114-1.275 3.324-1.88 5.104-3.189 8.762-.84 2.283-1.108 2.82-3.29 2.82h-2.718c-2.62 0-3.324-.235-4.297-3.054l-.003-.002zM109.67 15.412c0-5.572 3.02-10.507 9.6-10.507 5.035 0 8.56 2.752 8.56 8.46 0 2.651-.571 3.054-3.894 3.054h-6.881c-.403 0-.671.135-.671.604 0 1.075 2.082 1.78 4.667 1.78.83 0 1.508-.061 2.078-.157.754-.128 3.373-.782 3.804.858.072.276.058.566-.009.841-.696 2.882-3.706 4.534-7.651 4.534-5.74 0-9.6-3.793-9.6-9.467h-.003zm12.766-3.994c-.186-1.461-1.487-2.755-3.163-2.671-2.14.083-3.024 1.42-2.884 3.464.047.794.419.918 1.209.918 4.419 0 4.979-.585 4.838-1.711zM23.06 15.68c0-5.572 3.021-10.507 9.6-10.507 5.036 0 8.56 2.752 8.56 8.46 0 2.651-.57 3.054-3.893 3.054h-6.881c-.403 0-.671.135-.671.604 0 1.075 2.082 1.78 4.667 1.78.83 0 1.508-.061 2.078-.157.754-.128 3.373-.782 3.804.858.072.276.057.566-.01.841-.695 2.881-3.705 4.534-7.65 4.534-5.74 0-9.6-3.793-9.6-9.467h-.003zm12.767-3.994c-.186-1.461-1.488-2.755-3.163-2.671-2.14.083-3.024 1.42-2.885 3.464.048.794.42.918 1.21.918 4.42 0 4.979-.585 4.838-1.711z" fill="#3E1A78" data-darkreader-inline-fill="" style="--darkreader-inline-fill:#3e1a78;"></path></g><defs><clipPath id="logo-petlove-purple_svg__clip0_2_12308"><path fill="#fff" d="M0 0h142v31.291H0z" data-darkreader-inline-fill="" style="--darkreader-inline-fill:#181a1b;"></path></clipPath></defs></svg>