<svg xmlns:xlink="http://www.w3.org/1999/xlink" viewBox="0 0 499.5 499.5" xmlns="http://www.w3.org/2000/svg" class="svg-32 fill-primary" width="499.5"  height="499.5" ><path d="M75.2 132a114.5 114.5 0 00-15.4 59.3c.3 29.2 11.1 58.4 31.1 80.1 29.8 32.4 77.9 41.7 119.8 44.3 5.8.4 11.6 1.7 12.4 8.4 1.5 12.8.7 27.2 2.8 38.8-10.6 8.5-26.8 2.8-39.4 6.8-5.9 1.9-8.6 7.2-13.4 8.8-7.6 2.6-17.7-2-22-.3s-1.8 10.2 1.1 11.1 8.3-3.5 11.9-4.5c6.7-1.8 15-2.3 16.1 2 1.7 6.3-15.1 16.2-15.9 19.7s2.4 8.8 5.1 8.8c4.6-.1 5.4-4.6 7.1-9.1s4.6-13.6 8.3-12.6c11.7 3.1-2.5 25 4 26.8 4.6.8 7.9-1.6 7.7-3.9s-5.1-17.5 0-19.1 12.1 13.6 16.2 15 6.5-2 6.9-4.7c.9-5.6-28-13.2-20.5-17.3s15.5 3.9 19.5 3.1 4.9-3.3 1.7-7.4-25.8 2.9-18.6-8.5c3.9-6.1 30.5-.2 41.1-3.4s5.4-45.5 10.2-59.3c2.4-6.9 10.4-8 16.6-9.2 29.1-5.7 56.4-22.1 76.8-43.5 2.8-2.8 5.6-7.4 10.2-6.9 9.4 1.1 7.1 23.2 13.2 26.2 11.6.8 17.6-16.7 27.4-18.3a36.8 36.8 0 0114.7 1.1c4.4 1.2 6.1 10.3 13.2 8 4.3-8.3-8-5.8-9.7-10.9-1-3.1 0-5.4 1.3-8.5 5.7-5 15.7 4.9 17-2.4s-11.2-1.2-17.7-1.7c-4.8-3.4-3.6-5-1.6-7.2s6.6-6.1 7.9-8.8 1.8-5.7-2.9-5.5c-6.8.3-4.3 15.4-12.5 14.3s.9-14.4.1-17.6c-1.3-4.9-5.2-3.9-8-1.3s6.7 21.4-3.4 20c-3.9-.6-3.1-7.2-5.3-11.7-2.4-2.7-6.5-1-6.1 3.1 2.6 3.9 5.6 5 6.5 9.7 2.6 13.5-9.5 24.2-18 26.3-1.1-15-4.9-26.6-4.6-39.9.5-19.2 19.1-18.8 32-25.1s23.1-18.3 30.2-32c4-7.7 10-19.2 9.1-27.4s-11.7-10.6-18.3-9.7c-25.2 3.2-50.6 11.6-61.1 29.9-6.2 10.7-6.8 34.1-18.8 38.2-3.4 1.2-16.5.8-20.6 2.3s-5.7 5.1-9.7 6.9c-8.6 3.9-22.8 3.2-29.9-2.1-3.8-2.9-12.8-18.4-3.9-19.6 1.4-.2 12.8 5 12.1-2.8s-11.3-.5-13.9-.8-4.8-1.8-4.5-5 7.9-5.1 9.3-7.3-.3-6.2-2.8-6.9c-5.8-1.4-7 7.2-9.1 11a4.8 4.8 0 01-4.8.6c-4.2-4.8-.2-18.6-3.5-19.6s-7.8-.2-8.7 2.9c-1.3 4.7 10.8 15.8 6.8 18.8s-12.5-13.2-16.5-14.3-7.3 3.5-5.7 6.3 16.6 5.5 18.8 13.2c-.9 2.4-5 1.7-7.2.9s-6.2-3.2-7.7-.9-1 6.7.1 7.3 9-3.7 13-2.8 11.3 10.8 16 15.4 10.8 12.5 17.1 14.8 9.5-.1 15.4 3.4-5.2 14.3-7.6 16.7c-7.2 7.2-15.4 11.8-24.7 16.3-2.8 1.3-8.8 2.7-10.9 4.9 3.6-4 7.6-7.6 10.9-13.2s6.6-13.2 5.1-18.3c-3.7-12.1-31-7.4-42.5-12.2a5.8 5.8 0 01-1.1-8.7c3.9-4.3 10-2.6 12.8-5.9s.1-7.1-2.3-8-4.9 4.6-7.2 6.9-5.2 1.3-5-3.5 6.4-11 6.9-15.3c.3-2.6-.9-7.8-7.2-5.2-2 1.7-2 5.9-2 9.8 0 2-1.6 14-3.5 14.4-10.8 2.3-3.1-26.3-11.9-25.2a7.3 7.3 0 00-6.7 5c-1.8 5.5 17.8 23.1 8.2 25.7-4.9-.1-9.8-1.9-12.8-5.2-4.6-5-7.6-5.9-9.8-4.3-5.4 4.1-4 8.2-2.1 9.5s8.4 1.1 13.5 1.9 11.8 1.9 11.9 6-2 4.8-5.3 6.9-12.4 1.2-12.7 5.1a4.4 4.4 0 004 4.6c4 0 6.1-3.8 9.2-5.6 10.3-6.1 18.9-2 23.9-1.7 8.7.6 18.2 3.3 22 7.8-4.8 7-11.7 13.9-18.8 21.1s-13 15.8-21.1 19.4c-18.4 8-34.6 12.8-55 9.8a101.6 101.6 0 01-45-183.4C143.3 81.6 181 77.1 215.2 82a188.1 188.1 0 00-55.6-1.8c-18.9 2.1-37.7 8-53.5 18.6A103.2 103.2 0 0075.2 132z" fill="#4E2096"></path></svg>