<svg xmlns:xlink="http://www.w3.org/1999/xlink" viewBox="0 0 499.5 499.5" xmlns="http://www.w3.org/2000/svg" class="svg-32 fill-primary" width="499.5"  height="499.5" ><path d="M75.9 402.3s19.4 2.9 19.4-5.5-26.7-5.3-13-25.6 65.3-32.6 71.6-71.3v-.9c2.6-10.8 16.9 26.2 13.2 38.7s-.3 30.8 8.9 40.7 28.1 37.4 37.1 19.5c8.6-14.6-36.1-18.5-24.8-52 6-10.3 19.9-25.2 23.2-64.9 15.9 17.9 52 28.5 75.5 24.8 6.5 3.8-14.2 93-.3 96s26.1 5 26.1-4.3c0 0-1-8.3-12.9-8.6 0 0-3.6-10.9 1.7-13.9s4.6 15.6 15.9 20.5 18.9 4.3 18.9-5-21.8-6-22.5-27.2 7.2-45.8 17.3-61.5 27.4-59.4 24.7-87.8 31.8-22.5 38.4-21.2 41 3.3 41-17.2c0 0 2.7-19.9-19.2-19.9 0 0-9.3-5.3-10.6-13.9s-7.3-13.2-11.9-13.9l1.2-27.1-17 18.4 4-24.3s-58.3 91.4-134.4 106.6-145 13.9-152.3 13.9-9.9 7.9-5.3 11.3 35.8-1.3 35.1 5.3-26.5 26.5-23.2 54.3-8.6 25.2-14.2 34.4c-11.8 16.7-39.4 81.6-11.6 81.6z" fill="#4E2096"></path></svg>