<svg xmlns:xlink="http://www.w3.org/1999/xlink" xmlns="http://www.w3.org/2000/svg" viewBox="0 0 24 24" class="selling-points__list-item--svg" width="24"  height="24" ><path d="M8.613 4.448a4.102 4.102 0 00-4.93 2.07l-.558-.28.559.28a4.101 4.101 0 00.778 4.746L12 19.127l7.54-7.865a4.102 4.102 0 10-5.793-5.81l-1.305 1.304a.625.625 0 01-.883 0L10.254 5.45a4.102 4.102 0 00-1.64-1.003zm-6.047 1.51a5.351 5.351 0 00.998 6.176l7.985 8.328a.625.625 0 00.902 0l7.987-8.33a5.352 5.352 0 10-7.574-7.564L12 5.43l-.863-.863a5.352 5.352 0 00-8.571 1.391" fill-rule="evenodd" fill="#4E2096"></path></svg>