<svg xmlns:xlink="http://www.w3.org/1999/xlink" xmlns="http://www.w3.org/2000/svg" fill="#fc6" class="banner-side-animation__svg fill-alert svg-32 mr-5" data-darkreader-inline-fill="" style="--darkreader-inline-fill:#ffca61;" width="32"  height="32" ><path d="M32.189 19.743h.037a.78.78 0 00.797-.783v-4.639c0-.349-.139-.683-.386-.93a1.32 1.32 0 00-.93-.386H1.316c-.349 0-.683.139-.93.386a1.32 1.32 0 00-.386.93v4.699c0 .208.083.407.229.554a.78.78 0 00.554.229 2.74 2.74 0 010 5.472.782.782 0 00-.783.783v4.584a1.32 1.32 0 00.385.931c.246.247.581.386.93.386h19.853a.782.782 0 00.554-1.337.78.78 0 00-.554-.229H1.566V26.77a4.31 4.31 0 002.512-1.486 4.305 4.305 0 00.988-2.745 4.31 4.31 0 00-.988-2.745 4.31 4.31 0 00-2.512-1.486v-3.729h29.891v3.667a4.306 4.306 0 00-2.552 1.473 4.31 4.31 0 000 5.538 4.31 4.31 0 002.552 1.473v3.668h-4.471a.787.787 0 00-.554.229.78.78 0 00-.229.554c0 .208.083.407.229.554a.78.78 0 00.554.229h4.721c.349 0 .684-.139.93-.386a1.32 1.32 0 00.385-.931v-4.639a.79.79 0 00-.061-.303.77.77 0 00-.173-.255.807.807 0 00-.258-.169.77.77 0 00-.303-.056h-.042a2.74 2.74 0 01-2.047-.739 2.745 2.745 0 01-.639-.909 2.74 2.74 0 010-2.176c.149-.344.366-.653.639-.909a2.74 2.74 0 012.047-.739l.003-.009zM16.019 6.118l6.05-4.4 1.416 1.949a3.43 3.43 0 00-.204 4.293 3.433 3.433 0 001.875 1.293 3.43 3.43 0 002.272-.166l1.475 2.028a.785.785 0 00.051.751.78.78 0 00.285.265.79.79 0 00.377.096.773.773 0 00.459-.15 1.185 1.185 0 00.261-1.656l-2.054-2.825a.785.785 0 00-.228-.209.78.78 0 00-.291-.105.785.785 0 00-.309.016.78.78 0 00-.279.134l-.021.016a1.87 1.87 0 01-1.38.317 1.86 1.86 0 01-1.205-.743 1.867 1.867 0 01.388-2.591l.025-.017a.78.78 0 00.213-.224.79.79 0 00.11-.289.785.785 0 00-.01-.309.78.78 0 00-.129-.281L23.11.488a1.195 1.195 0 00-.339-.314 1.16 1.16 0 00-.434-.16 1.18 1.18 0 00-.462.019 1.17 1.17 0 00-.419.194l-6.359 4.625a.774.774 0 00-.214.224.79.79 0 00-.101.599.78.78 0 00.129.281.785.785 0 001.108.162zM7.23 12.324a.786.786 0 00.461-.15l3.636-2.644a.78.78 0 00.313-.512.783.783 0 00-.012-.305.8.8 0 00-.128-.278.796.796 0 00-.512-.313.79.79 0 00-.584.14l-3.636 2.646a.78.78 0 00-.284.392.785.785 0 00.284.875.78.78 0 00.46.149zm8.549 10.236a2.42 2.42 0 00.504-1.551c0-.801-.246-1.414-.739-1.837s-1.227-.635-2.203-.636h-2.872a.88.88 0 00-.972.972v6.128a.97.97 0 00.28.764.963.963 0 00.351.224.97.97 0 00.413.056 1.01 1.01 0 00.755-.281 1.04 1.04 0 00.214-.353 1.05 1.05 0 00.061-.408v-2.049h.744a.79.79 0 01.418.108c.135.089.25.204.338.338l1.488 2.175a1.16 1.16 0 00.411.379 1.1 1.1 0 00.516.13 1.09 1.09 0 00.704-.245.76.76 0 00.304-.613 1.07 1.07 0 00-.206-.584l-.71-1.018a2.33 2.33 0 00-.555-.584 1.524 1.524 0 00-.653-.252 2.47 2.47 0 001.41-.865zm-1.769-.773c-.202.146-.537.218-1.001.218h-1.466v-1.877h1.466c.465 0 .798.074 1.001.223s.304.391.304.727c0 .328-.101.564-.304.709zm5.815 5.976a.88.88 0 001.156 0 .76.76 0 00.223-.573v-.56a3.13 3.13 0 001.71-.859c.207-.207.369-.454.479-.725a2.18 2.18 0 00.157-.854c0-.542-.131-.973-.392-1.294a2.32 2.32 0 00-.939-.698 9.78 9.78 0 00-1.391-.412 5.63 5.63 0 01-1.156-.365.59.59 0 01-.366-.55.7.7 0 01.32-.602 1.43 1.43 0 01.837-.223 2.53 2.53 0 01.67.086c.204.055.401.133.589.23l.355.188a3.06 3.06 0 00.367.172.77.77 0 00.261.046.61.61 0 00.482-.252.914.914 0 00.205-.595.89.89 0 00-.085-.406.843.843 0 00-.292-.304 4.88 4.88 0 00-1.855-.721v-.538a.75.75 0 00-.052-.31.77.77 0 00-.172-.263.86.86 0 00-1.15 0 .76.76 0 00-.174.259.766.766 0 00-.055.307v.572a3.134 3.134 0 00-1.697.893 2.23 2.23 0 00-.641 1.591c0 .534.134.96.401 1.276.254.308.581.547.95.698a11 11 0 001.407.44l.818.23c.17.052.33.136.47.245a.49.49 0 01.188.392.66.66 0 01-.075.343.673.673 0 01-.24.257c-.211.135-.518.202-.921.201a3.6 3.6 0 01-.927-.115 4.22 4.22 0 01-.939-.392 2.15 2.15 0 00-.355-.172.88.88 0 00-.274-.046.6.6 0 00-.268.069.58.58 0 00-.207.183.924.924 0 00-.201.595.9.9 0 00.086.424.77.77 0 00.292.286 5.14 5.14 0 002.175.744v.514a.76.76 0 00.224.586zm.211-19.678a1.65 1.65 0 00-.599.333l-.275-.187c-.497-.273-1.008-.312-1.506-.022s-.675.747-.674 1.292a1.81 1.81 0 00.352 1.026c.509.751 1.21 1.278 2.004 1.697.039.018.082.025.125.02s.083-.021.118-.047a5.76 5.76 0 001.681-1.305 2.34 2.34 0 00.596-1.149c.183-1.1-.694-1.987-1.822-1.658zM24.017 32a.783.783 0 100-1.566.783.783 0 000 1.566zM13.183 8.113a.783.783 0 100-1.566.783.783 0 000 1.566z" fill="#FFCA61"></path></svg>