<svg xmlns:xlink="http://www.w3.org/1999/xlink" xmlns="http://www.w3.org/2000/svg" fill-rule="evenodd" viewBox="0 0 24 24" class="selling-points__list-item--svg" width="24"  height="24" ><path d="M15.2 5.55A1.875 1.875 0 0013.876 5h-10A1.875 1.875 0 002 6.875v6.25a.625.625 0 101.25 0v-6.25a.625.625 0 01.625-.625h10a.625.625 0 01.625.625v5a.625.625 0 101.25 0v-5c0-.497-.197-.974-.55-1.326z" fill="#4E2096"></path> <path d="M20.719 7.531a4.375 4.375 0 00-3.094-1.281h-2.5a.625.625 0 00-.625.625v5a.625.625 0 101.25 0V7.5h1.875a3.125 3.125 0 013.125 3.125v5a.624.624 0 01-.625.625H19.5a.625.625 0 100 1.25h.625A1.875 1.875 0 0022 15.625v-5c0-1.16-.46-2.273-1.281-3.094z" fill="#4E2096"></path> <path d="M17.625 6.25a.625.625 0 00-.625.625v3.75a1.875 1.875 0 001.875 1.875h2.5a.625.625 0 100-1.25h-2.5a.624.624 0 01-.625-.625v-3.75a.625.625 0 00-.625-.625zm-.107 8.232a2.5 2.5 0 10-3.536 3.537 2.5 2.5 0 003.536-3.537zM15.75 15a1.25 1.25 0 110 2.5 1.25 1.25 0 010-2.5zm-8.232-.518a2.5 2.5 0 10-3.536 3.536 2.5 2.5 0 003.536-3.536zM5.75 15a1.25 1.25 0 110 2.5 1.25 1.25 0 010-2.5zm6.875 1.875A.625.625 0 0012 16.25H9.5a.625.625 0 100 1.25H12c.345 0 .625-.28.625-.625z" fill="#4E2096"></path></svg>