<svg xmlns:xlink="http://www.w3.org/1999/xlink" xmlns="http://www.w3.org/2000/svg" fill="#fc6" class="banner-side-animation__svg fill-alert svg-32 mr-5" data-darkreader-inline-fill="" style="--darkreader-inline-fill:#ffca61;" width="32"  height="32" ><path d="M5.463 14.288a.92.92 0 00-.268-.648.914.914 0 00-.648-.268.92.92 0 00-.648.268.914.914 0 00-.268.648v16.799a.915.915 0 00.914.913h25.452a.91.91 0 00.35-.069.915.915 0 00.565-.845v-7.178a.916.916 0 00-.916-.916.92.92 0 00-.648.268.914.914 0 00-.268.648v6.264H5.463V14.288zm24.534 3.793a.913.913 0 00.915-.915v-2.879a.916.916 0 00-.916-.916.92.92 0 00-.648.268.914.914 0 00-.268.648v2.879a.92.92 0 00.269.648.91.91 0 00.298.198.923.923 0 00.351.069zm4.192-5.702L17.652.173a.877.877 0 00-1.044 0L11.24 4.188a.88.88 0 00-.181 1.229.88.88 0 00.919.328.877.877 0 00.31-.147l4.847-3.625 16.012 11.818a.876.876 0 001.226-.185.85.85 0 00.145-.309.89.89 0 00.016-.341.88.88 0 00-.346-.575v-.003zM7.197 8.309a.876.876 0 00-.577-.342.88.88 0 00-.65.166L.354 12.334a.87.87 0 00-.23.254.88.88 0 00-.098.665.88.88 0 00.401.54.88.88 0 00.665.098.88.88 0 00.31-.147L7.02 9.543a.893.893 0 00.231-.255.87.87 0 00.115-.325.867.867 0 00-.169-.654zm22.788 13.143a.915.915 0 100-1.83.915.915 0 000 1.83zM9.26 7.889a.915.915 0 100-1.83.915.915 0 000 1.83zm13.385 9.868a1.18 1.18 0 00-1.113 1.194v.76a1.175 1.175 0 01-1.175 1.175h-.516a1.16 1.16 0 01-.45-.09 1.186 1.186 0 01-.381-.255 1.17 1.17 0 01-.254-.382 1.176 1.176 0 01-.089-.45v-1.72a4.71 4.71 0 00-1.255-3.154.043.043 0 01-.006-.055c.006-.009.014-.015.023-.018s.02-.003.029.001l1.11.41a.201.201 0 00.153-.005.2.2 0 00.104-.112l.367-.987a.73.73 0 00.045-.283.723.723 0 00-.067-.278.73.73 0 00-.412-.381l-.641-.238a.733.733 0 00-.561.023.73.73 0 00-.381.412l-.309.833c-.006.016-.015.03-.027.042s-.027.021-.043.026a.12.12 0 01-.05.005.1.1 0 01-.047-.018 2.66 2.66 0 00-1.07-.39.12.12 0 01-.048-.017.113.113 0 01-.046-.134l.31-.846a.737.737 0 00-.022-.561.73.73 0 00-.412-.381l-.641-.237a.73.73 0 00-.561.021.733.733 0 00-.382.412l-.365.987a.201.201 0 00.005.153.19.19 0 00.046.063.2.2 0 00.066.041l1.181.437c.009.003.017.008.022.016s.008.017.008.026-.003.018-.008.026-.013.013-.022.016c-.2.042-.394.108-.578.197-.482.233-.829.616-1.17 1.012l-3.665 4.262c-.197.282-.013.581.123.846a5.51 5.51 0 00.469.791 4.87 4.87 0 002.883 1.851 4.876 4.876 0 003.389-.504.108.108 0 01.11 0c.017.01.03.024.039.041s.013.036.012.056v3.102c0 .164.035.326.103.475a1.15 1.15 0 00.717.624c.157.047.323.059.485.037a1.19 1.19 0 001.005-1.194v-1.228a1.175 1.175 0 011.174-1.174h.516c.312 0 .61.124.831.344a1.17 1.17 0 01.345.831v1.258a1.18 1.18 0 001.112 1.195 1.15 1.15 0 001.183-1.148v-6.611a1.16 1.16 0 00-.09-.453 1.11 1.11 0 00-.262-.38 1.15 1.15 0 00-.847-.318zm-7.943 2.639c-.345.492-.897.822-1.43 1.074a7.123 7.123 0 01-1.076.407c-.012.003-.025.003-.037 0s-.023-.01-.032-.018a7.266 7.266 0 01-.66-.795c-.505-.705-1.128-1.802-.554-2.635.274-.402.729-.66 1.22-.564a1.21 1.21 0 01.881.816 1.21 1.21 0 011.157-.271c.489.154.747.608.792 1.097a1.38 1.38 0 01-.262.888z" fill="#FFCA61"></path></svg>