<svg xmlns:xlink="http://www.w3.org/1999/xlink" data-v-b0ae51ca="" xmlns="http://www.w3.org/2000/svg" viewBox="0 0 1995.26 760.11" width="1995.26"  height="760.11" ><style fill="#CCC7C1">.no-faro_svg__st0{fill:#0e5072}.no-faro_svg__st1{fill:#94b914}</style><style class="darkreader darkreader--sync" media="screen" fill="#CCC7C1"></style><g id="no-faro_svg__Camada_1" fill="#CCC7C1"><path d="M1273.77 504.73c-10.07 8.26-20.5 15.3-32.13 20.47-16.94 7.53-34.75 11.25-53.22 11.93-22.55.83-44.9.16-66.53-7.58-32.33-11.56-57.22-32.74-77.61-59.67-24.51-32.38-32.49-69.52-29.33-109.21 4.31-54.13 33.83-92.79 77.99-121.24 28.88-18.61 61.26-25.29 95.39-22.75 56.06 4.18 95.86 34.32 125.56 79.95 12.44 19.12 17.32 40.83 20.38 63.05 1.2 8.77 1.15 17.6 1.15 26.43-.01 40.15 0 80.3 0 120.45 0 15.74-6.36 24.39-21.34 29.08-14.19 4.44-26.09.38-34.62-11.58-4.1-5.75-6.52-11.87-5.69-19.33zm-197.98-126.78c-1.52 58.79 52.41 96.34 95.21 98.44 57.06 2.8 102.87-46.49 103.34-98.54.54-59.62-51.24-100.01-99.76-100.49-57.03-.56-100.74 51.57-98.79 100.59zM1775.6 537.28c-75.14 3.19-157.97-64.81-158.48-160.15-.46-86.73 75.05-160.02 160.62-159.82 86.66.2 159.34 74.92 159.32 161.72-.02 93.04-84.07 161.63-161.46 158.25zM1874.42 377c3.34-48.07-41.48-96.8-97.18-97.75-60.15-1.02-96.91 54.78-98.24 95.28-2.03 61.63 52.73 100.66 97.05 101.43 56.8.99 101.61-50.91 98.37-98.96zM119.88 244.86c1.42.39 1.98-.25 2.61-.78 20.96-17.79 45.79-25.94 72.63-28.74 32.57-3.4 63.78 1.22 92.58 17.58 42.76 24.29 70.58 59.88 80.92 108.42 1.63 7.66 2.44 15.46 2.44 23.3.04 47.32.02 94.64.02 141.96 0 18.19-18.5 32.57-36.39 28.31-17.41-4.15-25.26-14.1-25.28-32-.05-43.65.83-87.33-.43-130.95-1.19-41.17-19.5-72.89-59.02-88.64-35.29-14.06-78.77-8.42-108.04 27.84-16.53 20.48-21.81 43.55-21.84 68.8-.05 41.65-.2 83.3-.28 124.95-.04 21.77-21.4 36.58-42.04 29.06-6.4-2.33-11.1-6.75-14.15-12.72-3.35-6.56-5.41-13.44-5.4-21.01.09-82.64.06-165.29.06-247.93 0-8.47 2.03-16.35 5.83-23.97 5.02-10.07 21.35-17.07 32.72-12.28 6.19 2.61 12.24 5.22 16.95 10.17 4.99 5.26 6.34 11.82 6.11 18.63zM918.26 391.98c0 30.5.04 60.99-.03 91.49-.02 7.67.4 15.3.95 22.95.77 10.87-4 19-13.18 24.56-25.1 15.18-41.89.39-49.34-19-.69-1.81-.43-3.66-.19-5.44 1.2-8.95.95-17.95.95-26.94.01-63.32 0-126.65 0-189.97 0-6.98 0-6.98-7.23-6.98-13.5 0-27 .02-40.49-.01-13.94-.03-21.53-5.84-26.8-18.85-9.05-22.36 4.06-34.33 21.55-42.08 5.15-2.28 12.15-.42 18.3-.39 10.16.05 20.32.04 30.47.32 3.58.1 3.08-2.05 3.03-4.18-.4-15.88.7-31.61 5.07-46.98 9.96-35.09 33.26-58.25 66.24-71.72 9.81-4 20.96-5.21 31.81-5.59 8.65-.3 17.33-.03 25.99-.08 2.36-.02 4.65.26 6.88 1.01 13.57 4.57 17.3 16.15 19.58 28.36 1.84 9.87-1.8 18.15-9.86 24.05-7.52 5.51-15.91 8.77-25.5 8.67-8.8-.09-17.59-.55-26.32 1.76-18.02 4.77-29.45 23.86-31.01 38.1-.81 7.42-.49 14.96-.93 22.44-.19 3.23.77 4.23 4.1 4.19 17.15-.17 34.31.21 51.45-.75 11.51-.64 19.34 4.73 24.62 14.52 2.62 4.87 4.85 9.98 5.29 15.48.92 11.47-3.31 20.51-13.7 26.17-6.67 3.63-13.62 5.81-21.42 5.66-15.33-.3-30.66.03-45.99-.17-3.55-.05-4.39 1-4.37 4.44.13 34.97.08 69.97.08 104.96zM1447.39 246.06c16.17-13.87 33.56-22.59 52.91-27.35 37.74-9.29 74.53-5.84 109.55 10.59 10.29 4.83 15.53 15.73 14.42 27.66-1.67 17.95-12.32 30.58-31.05 29.1-7.14-.57-14.06-3.74-21.13-5.52-25.11-6.34-50.21-6.89-73.33 5.95-29.49 16.38-46.22 42.2-50.55 75.83-1.22 9.45-.76 18.96-.77 28.44-.03 38.48 0 76.97-.02 115.45-.01 20.84-18.48 35.29-38.91 30.5-12.73-2.99-22.39-16.64-22.4-31.89-.03-46.15-.01-92.29-.01-138.44 0-38.82.03-77.63-.03-116.45-.01-6.97 1.47-13.57 4.37-19.82 6.27-13.5 20.64-19.3 34.69-14.26 13.62 4.86 23.32 12.78 22.26 30.21z" class="no-faro_svg__st0" fill="#82CAF0"></path></g><g id="no-faro_svg__patinha" fill="#CCC7C1"><path d="M757.4 342.47c-.24 40.24-12.06 73.56-32.1 104.11-25.23 38.45-58.12 68.64-98.52 90.82-18.96 10.41-37.78 12.79-58.32 4.68-52.52-20.73-97.47-51.36-129.2-98.85-26.27-39.31-32.68-82.27-17.9-127.32 10.81-32.96 35.43-50.39 69.13-55.78 6.43-1.03 12.92-1.45 19.42-1 2.53.18 3.79-.8 5.09-2.91 25.25-41.12 62.33-59.19 110.12-56.31 65.55 3.95 121.31 54.46 130.94 124.92.95 6.93 1.62 13.91 1.34 17.64zm-220.83-22.51c-2.41-2.71-3.93-4.68-5.71-6.38-18.23-17.33-41.71-16.85-57.79 1.21-4.35 4.89-7.56 10.51-9.86 16.66-5.94 15.89-5.92 32.13-1.26 48.09 17.46 59.88 57.55 98.46 114.78 120.69 10.9 4.23 21.4 3.53 31.97-.92 4.91-2.07 9.82-4.1 14.43-6.79 31.15-18.2 53.63-44.48 70.03-76.14 13.6-26.25 22.11-54.01 19.08-83.94-3.69-36.43-21.56-63.93-54.85-80.18-36.12-17.63-76.59-8.59-100.82 22.04-10.31 13.03-16.15 28.15-20 45.66zM543.43 156.53c.15 13-2.7 24.11-10.13 33.7-10.65 13.76-28.38 17.41-45.44 9.54-29.71-13.71-44.82-57.32-29.95-86.46 9.28-18.18 28.52-25.57 47.28-17.46 21.35 9.23 32.14 26.89 37.07 48.8.96 4.25 1.27 8.56 1.17 11.88zM566.04 115.55c.25-18.48 5.5-35 19.14-48.18 17.06-16.47 41.13-14.95 56.03 3.5 20.28 25.12 15.96 68.99-8.82 89.7-20.42 17.06-48.04 9.73-60.11-16.01-4.3-9.16-6.53-18.8-6.24-29.01zM733.42 142.97c0 21.09-11.43 38.83-26.85 44.95-16.54 6.57-32.15-2.19-35.2-19.74-2.96-17.04 6.14-37.02 21.06-45.89 8.95-5.32 18.4-7.33 27.93-1.87 9.85 5.64 12.92 15.1 13.06 22.55zM459.42 224.5c.07 18.94-14.61 29.85-32.58 24.21-17.34-5.45-30.4-24.35-29.42-42.59.93-17.38 16.03-27.21 33.12-21.56 16.31 5.39 28.81 22.69 28.88 39.94z" class="no-faro_svg__st1" fill="#C9EC4F"></path></g></svg>