<svg xmlns:xlink="http://www.w3.org/1999/xlink" data-v-6579759f="" xmlns="http://www.w3.org/2000/svg" fill-rule="evenodd" viewBox="0 0 24 24" class="col-auto" width="24"  height="24" ><path d="M5.125 10.125A1.875 1.875 0 003.25 12v2.5a1.875 1.875 0 001.875 1.875h.625v-6.25h-.625zm-2.21-.335a3.125 3.125 0 012.21-.915h.625A1.25 1.25 0 017 10.125v6.25a1.25 1.25 0 01-1.25 1.25h-.625A3.125 3.125 0 012 14.5V12c0-.829.33-1.624.915-2.21zm14.451-.549a1.25 1.25 0 01.884-.366h.625A3.125 3.125 0 0122 12v2.5a3.125 3.125 0 01-3.125 3.125h-.625a1.25 1.25 0 01-1.25-1.25v-6.25c0-.332.132-.65.366-.884zm1.509.884h-.625v6.25h.625A1.875 1.875 0 0020.75 14.5V12a1.875 1.875 0 00-1.875-1.875z" fill="#CCC7C1"></path> <path d="M12 3.25A6.25 6.25 0 005.75 9.5a.625.625 0 11-1.25 0 7.5 7.5 0 0115 0 .625.625 0 11-1.25 0A6.25 6.25 0 0012 3.25zm6.875 13.125c.345 0 .625.28.625.625v.625a3.125 3.125 0 01-3.125 3.125H14.5a.625.625 0 110-1.25h1.875a1.875 1.875 0 001.875-1.875V17c0-.345.28-.625.625-.625z" fill="#CCC7C1"></path> <path d="M12 19.5a.624.624 0 100 1.25h1.25a.624.624 0 100-1.25H12zm-1.326-.7c.352-.352.829-.55 1.326-.55h1.25a1.875 1.875 0 110 3.75H12a1.875 1.875 0 01-1.326-3.2z" fill="#CCC7C1"></path></svg>