<svg xmlns:xlink="http://www.w3.org/1999/xlink" viewBox="0 0 499.5 499.5" xmlns="http://www.w3.org/2000/svg" class="svg-32 fill-primary" width="499.5"  height="499.5" ><path d="M449.7 266c.3-2.6-1.3-5.3-6-8.3l-13-8.2c-9.4-6-19.3-11.5-28.7-18-27.4-19-59.9-25.8-92.4-30.2-13.3-1.7-28.2-1-39.4-9.2-8.7-6.3-23.7-28.3-40.2-37.9-2.9-1.7-16.3-8.5-16.3-8.5s7.7 20.8 9.4 25c4.1 9.7-2.2 18-4.9 27.2-1.7 6.1 12.5 4.8 13.3 10.5 1.1 8.4-24.3 11.4-38.7 14.2-21.4 4.2-46.4 12.2-67.8 5.2-25.3-8.1-43.3-24.2-61.4-42.4 8.4 39.4 31.9 62.2 32.9 67s-2.7 6.4-6.1 9.9c-7.6 7.4-40.6 45.4-40.7 57.4 9.5-1.5 20.9-9.7 29.2-14.6s44.6-31.5 54.5-35.6c2.3-.9 29.7-9 29.9-5.5.4 5.5-1.8 6.7-1.1 9 1.3 4.4 8.4 8.6 11.9 11.6 8.9 7.6 18.8 14.3 25.1 24.4 8.8 14.1 9.1 29.3 11.6 45 5.8-.7 11.8-12.8 15-17.5s14-23.9 18.2-25.1 16.2 5.6 20.6 6.9c16.8 5 33.1 7.9 50.2 7.9 20.6 0 74.6 1.5 114.7-28.1 4.4-3.3 15-16 15-16a12.7 12.7 0 00-6.2-4.6c5.3-3.6 10.9-7.3 11.4-11.5z" fill="#4E2096"></path></svg>