<svg xmlns:xlink="http://www.w3.org/1999/xlink" xmlns="http://www.w3.org/2000/svg" fill="none" viewBox="0 0 28 28" width="28"  height="28" ><path d="m0 14c0-7.73199 6.26801-14 14-14 7.732 0 14 6.26801 14 14 0 7.732-6.268 14-14 14-7.73199 0-14-6.268-14-14z" fill="#f00"/><path d="m21.1547 10.5427c-.1717-.65971-.6778-1.17924-1.3203-1.35556-1.1645-.32044-5.8343-.32044-5.8343-.32044s-4.66979 0-5.83434.32044c-.64256.17632-1.14859.69585-1.32032 1.35556-.31199 1.1958-.31199 3.6907-.31199 3.6907s0 2.4948.31199 3.6906c.17173.6597.67776 1.1793 1.32032 1.3557 1.16455.3203 5.83434.3203 5.83434.3203s4.6698 0 5.8343-.3203c.6425-.1764 1.1486-.696 1.3203-1.3557.3121-1.1958.3121-3.6906.3121-3.6906s0-2.4949-.3121-3.6907z" fill="#fff"/><path d="m12.6001 16.8v-4.6667l3.7333 2.3334z" fill="#f00"/></svg>