<svg xmlns:xlink="http://www.w3.org/1999/xlink" viewBox="0 0 499.5 499.5" xmlns="http://www.w3.org/2000/svg" class="svg-32 fill-primary" width="499.5"  height="499.5" ><path d="M103.2 264.6c-.5 1.3-.4 1.5.9.6a273.5 273.5 0 0138.1-22.2c1.4-.7 2.4-.1 2.3 1.3l-5.1 83c-4.5 33.2-14.2 65.2-34.9 93.8a10.6 10.6 0 00-1.2 2.3c-.5 1.3-.4 2.7.2 3.2s2.1.1 3.3-.9c4-3.2 8.1-6.2 11.5-9.8 10.1-10.6 15.7-23.4 20-36.5l.3-.9a4.2 4.2 0 012.2-2.7 3 3 0 013 .8c9.1 7.2-9.3 35.2-13.7 41.3a5.5 5.5 0 00-.8 2c-.3 1.2-.1 2.4.4 2.7s1.9-.1 3.1-.9a54.9 54.9 0 005.8-4.2c16.5-14.4 25.7-32.5 32.5-51.6a270.3 270.3 0 0012.1-48.6c.2-1.4.6-2.9.7-3.4a3.7 3.7 0 00.1-1c0-1 1.9 1.7 1.9 1.7.6 1.6.1 3.8-.2 5.5a38.4 38.4 0 00-1.1 8.9c.2 4.1 5.5 5.1 8.1 3.2a4.2 4.2 0 001.5-2.3v-.2a385.4 385.4 0 0011.9-61.1 4.5 4.5 0 012.9-3.4l13.3-4.4a3.8 3.8 0 014 1.3l1.7 2.1a1.8 1.8 0 001.2.6 4.7 4.7 0 003-1.1 1.7 1.7 0 00.5-1.6 13.2 13.2 0 01-.2-2.3 2.1 2.1 0 012.2-2.1l1.9-.3 39.2-10.3c1.5-.4 2.5.4 1.9 1.7h-.1c-.6 1.3-3 2.6-3 4s2 2 2.5 2h2.2l.9-.3a12.9 12.9 0 003.5-1.3l.7-.6a16.7 16.7 0 002.8-4.3 10.6 10.6 0 00.6-1.9c.3-1.4 1.2-2.7 2.3-3a3.4 3.4 0 013.5 1.6 14.6 14.6 0 011.2 3 1.8 1.8 0 00.5.8c.4.4.8.6.7.8s.4.1 1.2-.2l1.4-.6c2.5-1.2 3.8-2.7 4.2-4.6a19.7 19.7 0 00.4-3.3c0-.5 1-1.2 2.5-1.6l34.4-9c8.7-2.3 5-14.4-3.8-12.1L296 228.8a8 8 0 01-5.1-.7 35.5 35.5 0 00-16.3-4.1c-1.6 0-2.4-1-1.9-2.3 1.6-4.3 3.2-8.7 4.6-13a41.8 41.8 0 012-4.7l4.6-8.8a13.3 13.3 0 013.4-3.9l5.3-4.1a34.5 34.5 0 014.5-3c14.3-7.8 25.7-24.5 25.8-38.8v-1.3c0-.4 1-1.9 2.4-2.6l5-2.6 7.8-4 2.4-1.4v-.1h.1l1.8.5a8.9 8.9 0 012.9 1l1.4.6a79.9 79.9 0 0020.5 3.5h1.4a13.5 13.5 0 013.4-.1l2.1.3h1c.5 0 .7.9.2 2l-1 1.9-1 1.9c-.5 1-.7 2.2-.4 2.6s1.7.3 3.2-.2a8 8 0 003.5-1.8c4.7-5.1 9.9-10.2 13.2-16.1s6.5-12.8.8-17.7l-1-.8a6.5 6.5 0 01-1.8-3.1l-.7-2.5-.3-.7-1.3-3C380 81.9 358.3 70 334 73.1a215.7 215.7 0 00-72.9 22.2c-5.4 2.8-15.1 3.2-21.3 5.1-30.4 9.4-53.5 24.2-73.6 46.7a312.2 312.2 0 00-41.8 58.9 254.3 254.3 0 00-14.8 32.3c-1.3 3.4-3.9 20.1-6.4 26.3zm135.7-38.9a10.2 10.2 0 00.2-2.2v-4.4a12.5 12.5 0 01.4-3.4c.2-.5.2-.8 0-.7s-.4-.1-.4-.4v-.7l.3-.2c.2-.1 1.1.8 2 2l4.6 5.9.5.6a24.5 24.5 0 011.8 2.9l1.9 3.3c1.2 2.2 3.4 4 4.4 6.2l.9 1.6c.5.9 1.1 1.7 1 2.2a1.9 1.9 0 01-1.3 1.1 9.2 9.2 0 01-3.7-.8l-2.6-.8a14.4 14.4 0 01-4.9-2.1 18.7 18.7 0 01-4.8-5.6 7.4 7.4 0 01-.4-4.5zm-31 24.1c.6-9.5.9-19 .8-28.5a8.4 8.4 0 01.2-2.6 13.1 13.1 0 01.8 2.4 19.8 19.8 0 00.9 2.2c.6 1.3 1.4 3.3 2 4.5s1.5 3.2 2.2 4.4l1.6 2.5 5.9 8.5a2.4 2.4 0 01-.5 3.4 18.2 18.2 0 01-4.4 2.4l-7 2.3c-1.6.7-2.7-.1-2.6-1.5z" fill="#4E2096"></path></svg>