<svg xmlns="http://www.w3.org/2000/svg" xmlns:xlink="http://www.w3.org/1999/xlink" viewBox="0 0 24 24" class="selling-points__list-item--svg" width="24"  height="24" ><g fill-rule="evenodd" fill="#4E2096"><path d="M13.245 12.596a1.934 1.934 0 011.486.358L16.125 14a.625.625 0 11-.75 1l-1.394-1.046a.685.685 0 00-.978.168.684.684 0 000 .757l1.371 2.056c.351.526.854.933 1.441 1.168l2.042.817a.625.625 0 01.393.58v1.875a.625.625 0 01-1.25 0v-1.452l-1.648-.66a4.377 4.377 0 01-2.018-1.635l-1.37-2.056a1.936 1.936 0 01.555-2.692c.22-.143.467-.24.726-.284zm1.305-2.717a.625.625 0 01.821-.328l2.996 1.284a4.375 4.375 0 012.298 2.298l.981 2.287c.233.545.354 1.132.354 1.724v4.231a.625.625 0 11-1.25 0v-4.23a3.13 3.13 0 00-.253-1.232l-.98-2.287a3.125 3.125 0 00-1.642-1.642L14.879 10.7a.625.625 0 01-.328-.821z" fill="#4E2096"></path> <path d="M2.732 2.732A2.5 2.5 0 014.5 2h8.75a2.5 2.5 0 012.5 2.5v9.532a.625.625 0 01-1.25 0V4.5a1.25 1.25 0 00-1.25-1.25H4.5A1.25 1.25 0 003.25 4.5v15a1.25 1.25 0 001.25 1.25h8.75a1.25 1.25 0 001.25-1.25v-1.037a.625.625 0 011.25 0V19.5a2.5 2.5 0 01-2.5 2.5H4.5A2.5 2.5 0 012 19.5v-15a2.5 2.5 0 01.732-1.768z" fill="#4E2096"></path> <path d="M2 16.375c0-.345.28-.625.625-.625H13.25a.625.625 0 110 1.25H2.625A.625.625 0 012 16.375zm6.25 2.188c0-.346.28-.625.625-.625a.938.938 0 01.938.937.625.625 0 01-1.195.257.625.625 0 01-.368-.57z" fill="#4E2096"></path> <path d="M9.186 18.25c.345 0 .626.278.627.623a.936.936 0 01-.94.94.625.625 0 01-.255-1.195.625.625 0 01.568-.368z" fill="#4E2096"></path> <path d="M8.212 18.212a.938.938 0 01.663-.274.625.625 0 01.257 1.194.625.625 0 01-1.194-.257c0-.249.098-.487.274-.663zM8.25 7.286c0-.345.28-.625.625-.625a.937.937 0 01.938.937.625.625 0 01-1.195.258.625.625 0 01-.368-.57z" fill="#4E2096"></path> <use xlink:href="#sriconpawtablet1" fill="#4E2096"></use> <path d="M9.132 7.341a.625.625 0 00-1.194.257.937.937 0 00.937.938.625.625 0 00.257-1.195z" fill="#4E2096"></path> <path d="M9.188 6.973c.345 0 .624.28.624.625a.937.937 0 01-.937.938.625.625 0 01-.257-1.195.625.625 0 01.57-.368zM5.75 8.536c0-.345.28-.625.625-.625a.937.937 0 01.938.937.625.625 0 01-1.195.258.625.625 0 01-.368-.57z" fill="#4E2096"></path> <use x="-2.5" y="1.25" xlink:href="#sriconpawtablet1" fill="#4E2096"></use> <path d="M6.632 8.591a.625.625 0 00-1.194.257.937.937 0 00.937.938.625.625 0 00.257-1.195z" fill="#4E2096"></path> <path d="M6.688 8.223c.345 0 .625.28.625.625a.937.937 0 01-.938.938.625.625 0 01-.257-1.195.625.625 0 01.57-.368zm4.062.313c0-.345.28-.625.625-.625a.937.937 0 01.938.937.625.625 0 01-1.195.258.625.625 0 01-.368-.57z" fill="#4E2096"></path> <use x="2.5" y="1.25" xlink:href="#sriconpawtablet1" fill="#4E2096"></use> <path d="M11.632 8.591a.625.625 0 00-1.194.257.938.938 0 00.937.938.625.625 0 00.257-1.195z" fill="#4E2096"></path> <path d="M11.688 8.223c.345 0 .624.28.624.625a.938.938 0 01-.937.938.625.625 0 01-.257-1.195.625.625 0 01.57-.368zM8.397 9.855a1.25 1.25 0 011.362.27l.993.993a1.25 1.25 0 01-.884 2.132H7.882a1.25 1.25 0 01-.884-2.132L7 11.116l.991-.99a1.25 1.25 0 01.406-.271zm.478 1.155l-.99.989V12h1.98v-.001l-.99-.99z" fill="#4E2096"></path></g> <defs><path id="sriconpawtablet1" d="M9.132 7.856a.625.625 0 00-.257-1.195.937.937 0 00-.938.937.625.625 0 001.195.258z"></path><path id="sriconpawtablet1" d="M9.132 7.856a.625.625 0 00-.257-1.195.937.937 0 00-.938.937.625.625 0 001.195.258z"></path><path id="sriconpawtablet1" d="M9.132 7.856a.625.625 0 00-.257-1.195.937.937 0 00-.938.937.625.625 0 001.195.258z"></path><path id="sriconpawtablet1" d="M9.132 7.856a.625.625 0 00-.257-1.195.937.937 0 00-.938.937.625.625 0 001.195.258z"></path></defs></svg>