<svg xmlns:xlink="http://www.w3.org/1999/xlink" viewBox="0 0 499.5 499.5" xmlns="http://www.w3.org/2000/svg" class="svg-32 fill-primary" width="499.5"  height="499.5" ><path d="M385.3 217.7c-3.6-8.7-6.8-17.6-10.8-26.2s-9.2-11.9-15.7-15.7c-3.7-2.2-7.9-3.6-11.8-5.1a2.9 2.9 0 01-1.7-3.2c.6-3.3 1.4-6.7 1.8-10.2s-.2-4.3-.3-6.5 0-5.9.1-8.8c.2-5.1-1.1-9.9-2.3-14.8-.8-3.1-.2-6.6-1.1-9.7s.2-7-2.9-9.6a.4.4 0 01-.1-.3c.5-4.9-3.2-8.4-4.8-12.5s-4.5-8.2-9.1-10.1a31.8 31.8 0 01-4.9-2.9 1.7 1.7 0 00-2.7 1 108.5 108.5 0 00-3.8 12.1c-.9 3.9-2.9 7.5-2.3 12s-1.6 6.8-2.2 10.2c-.4 1.8-.6 3.7-.8 5.6s-.9 1.5-1.8.5-3.6-4.9-6-6.3c-4-2.5-7-6.2-10.9-8.5-6.1-3.6-12.4-7.4-19.1-9.8s-13.8-3.1-20.9-4.1c-1.9-.2-3.8.5-6.1 1.2a1.8 1.8 0 00-1.2 2.7c2.1 4 3.9 7.7 6 11.3q5.2 8.9 10.8 17.5c2.1 3.3 4.7 6.2 7.1 9.3s4.6 6.6 7.1 9.7 3.9 4 5.8 6 4.2 4.5 6.1 6.9c5.1 6.7 7.1 14.5 8.1 22.7a3 3 0 00.2.9c2.7 5.1-.1 8.4-3.8 11.5-.5.4-.6 1.4-.8 2.1a14.4 14.4 0 01-1.5 3.6c-2.4 3.1-2.9 6.6-3.1 10.3s-.9 4.5-1.2 6.8a3.9 3.9 0 000 1.1 7.7 7.7 0 01-.8 3.2c-2 4.4-3.4 9.2-7.5 12.2-1.1.8-1.4 1.1-.5 1h1.5a8.3 8.3 0 01-2.2 1l-.6.2c-1.2.5-1.6 1-.9 1.2s.3.7-1 1.1l-3.2 1.1c-1.2.4-1.7 1-1.2 1.3s.1.7-1 1-1.9.8-1.7 1.1-.8.8-2 1.1a61.1 61.1 0 01-6.9 1.2 6.6 6.6 0 01-2.3-.3 18.6 18.6 0 00-4.5-.9c-7.6.2-20.5 2.5-25.8 3.5l-4.6.7-5.6.6c-1.3.1-2.2.4-2 .6s-.6.7-1.9 1.1l-17.2 5.8c-1.2.4-1.9.9-1.5 1.2s-.2.8-1.4 1.2c-3.3 1.2-6.5 2.1-9.1 4.1s-5.9 3.7-8.6 5.9-7.4 3.4-11.1 5l-1.2.5c-.7.3-.7.7 0 1s.3 1.2-.7 1.9l-6.8 5c-1 .8-1.6 1.6-1.2 1.8s-.2.9-1.4 1.5l-2.3 1.2c-1.1.6-2 1.2-1.9 1.4a3.3 3.3 0 001.7-.1c.9-.2.8.4-.1 1.3L135 301.2l-1.4 1.2c-.8.6-.6.9.5.7s1.3.4.6 1.4c-2 3.1-3.9 6.1-6 9s-3 3.5-4.6 5.3a.4.4 0 000 .3c0 .2.5.2 1 .1s.3.7-.5 1.7l-3.8 5.3c-.8 1-.5 1.4.5.9s1.5 0 .9 1.1c-2 4.3-4.2 8.1-4.5 12.6-.2 2.2-1.3 4.4-2.5 6.8s-.5 1.8.1 1.4.8.3.6 1.6l-3.1 17.7c-.2 1.3-.1 2.2.4 2s.5.7.1 1.9l-.8 2.9c-.4 1.2-.3 2.2.2 2s.5.8.2 2c-.6 3.3-.2 6.9-2.7 9.6-.9 1-1.3 1.5-.7 1.5s.5.9-.3 1.9l-.6.9c-.8 1.1-1 1.8-.5 1.6l1-.2v.2a6 6 0 010 .9c-.7 5.6 1.2 10 6.5 12.4s6.7 5.7 11.8 5.2c1.6-.2 3.4 1.6 5 2.4h.3c.1-.1.2-.4 0-.7s.8-.4 2-.1l2.8.6c1.3.3 2.1.1 1.9-.3s.6-.4 1.8 0c10.6 3.5 21.5 2 32.2 2.3 1.3 0 2.2-.1 2-.4s.7-.5 2-.5h11.1a40.7 40.7 0 005.2-.4l11.4-1.7c4.2-.7 8.4.9 12.7-1.6 2.5-1.5 4.8-2.6 5.7-4.5s1.4-2.6 2.7-2.8 4.6-1.1 6.7-1.7 5.7-2 6.3-6.1.2-5.5-2.4-7a1.4 1.4 0 01-.5-.8c-.1-.5-1.3-1.1-2.6-1.2h-.9a1.3 1.3 0 01-1.1-2.2l1.1-1.8c.7-1.1 1.4-1.9 1.6-1.8a3.6 3.6 0 01.5 1.9c.1.9.6.8 1.2-.4l.8-1.7c.6-1.2 1.2-2.1 1.4-2a3.4 3.4 0 01.5 1.8c.1.9.6.7 1-.5l.5-1.2c.5-1.2.9-1.3 1-.2s.4.9.9-.3a9.9 9.9 0 015.4-5.3c3.6-1.5 7.1-3.4 10.8-5a2.6 2.6 0 012.4.6c1.8 2.1 3.3 4.5 5 6.7s3.7 4.6 5.6 6.8l7.5 8.3.4.5c.2.3.6.2.8-.1s.8.3 1.4 1.5l.6 1.3c.5 1.2 1.1 1.5 1.2.7s.8-.6 1.5.5l5.7 8.3c.7 1.1 1.3 1.3 1.3.4s.6-.6 1.3.5l3.2 4.8c.7 1.1 1.2 1.1 1.1.1a3.5 3.5 0 01.1-2.1c.2-.1 1 .6 1.7 1.6l1.3 1.8c.8 1 1.6 1.6 1.9 1.3a1.2 1.2 0 00.3-.7c0-.1-.1-.2-.1-.3h.1a8.8 8.8 0 012.1 1.3l2.2 1.6c1.1.8 1.9.9 1.8.3s.9-.7 2-.1a12.4 12.4 0 003 1c2.6.4 5.4-.1 7.9.6 5 1.4 9.1-.8 12.4-3.4a10.7 10.7 0 016.3-2.3 7.8 7.8 0 004-1.8l3.9-3.7a3.4 3.4 0 00.7-3.7c-1.5-2.9-3.1-5.4-6.2-6.3-1.2-.4-1.8-.8-1.2-1.3s0-.9-1.3-.9h-3.4l1.1-.5c.6-.2.2-.8-1-1.3l-1-.5c-1.2-.5-1.7-1.1-1.1-1.2s.1-.8-1-1.4l-6.5-3.5-1.5-.6c-.9-.3-1-.7-.3-.9s.6-.6-.1-1-.6-.8.2-.9.6-.6-.6-1.1l-3-1.2c-1.2-.5-1.8-1.5-1.2-2.1s.9-1 .8-1.3a10.7 10.7 0 00-1.1-2.1c-.7-1.1-.9-1.9-.5-1.9s.7-.5.5-1.2l-.3-1.2c-.5-2.5-.5-5.3-1.6-7.6s-1.2-5.4.5-7.6 1.8-1.4 2.1-1 .8-.2 1.3-1.1 1-1.4 1.2-1.1.9-.2 1.8-1.1l2.1-2.5c.8-1 1.7-1.4 1.8-.9s.7-.1 1.3-1.3c2.9-5.8 7.9-10.4 9.1-17.1h.1l.8.5c.3.3.9-.4 1.3-1.7l6-20.6a16.2 16.2 0 012.1-4.1c3.8-5.2 4.7-8.7 4.9-10.7s-1.1-3-1.8-4.1-1.1-4.5-1.2-6.7a57 57 0 01.3-9.1c.1-1.3.3-2.3.6-2.2s.3-.8.3-2.1c.1-5.6 5-7 9.2-8.7l4.2-1.6a5.4 5.4 0 001.9-1 30.2 30.2 0 003.8-4.6 19.5 19.5 0 014-3.6c2.5-1.9 4.4-4.7 6.7-7a47.9 47.9 0 016-5.3 6.2 6.2 0 001.4-8.7 57.7 57.7 0 01-5.2-9.5z" fill="#4E2096"></path></svg>