<svg xmlns:xlink="http://www.w3.org/1999/xlink" xmlns="http://www.w3.org/2000/svg" fill="#fc6" class="banner-side-animation__svg fill-alert svg-32 mr-5" data-darkreader-inline-fill="" style="--darkreader-inline-fill:#ffca61;" width="32"  height="32" ><path d="M.981 6.19a.845.845 0 00.525-.182.85.85 0 00.299-.469c0-.013 0-.027.012-.048a4.75 4.75 0 01.576-1.396c.376-.63 1.484-.864 2.085-.954v.71a.85.85 0 00.848.814.85.85 0 00.848-.814V.827a.85.85 0 00-.848-.814.85.85 0 00-.848.814v.614l-.72.107c-1.369.274-2.317.84-2.821 1.686a6.426 6.426 0 00-.775 1.89l-.017.081a.72.72 0 00-.013.144.85.85 0 00.85.841zM.847 8.783a.844.844 0 00.592-.238.84.84 0 00.255-.584v-.042a.846.846 0 10-1.694 0v.053a.85.85 0 00.26.577.84.84 0 00.587.234zm27.532 6.719a2.35 2.35 0 00-.846.468 4.47 4.47 0 00-.388-.262c-.702-.385-1.42-.432-2.125-.032s-.949 1.053-.949 1.821a2.56 2.56 0 00.497 1.441 6.963 6.963 0 002.098 1.968c.072 2.128-.017 5.907-3.589 8.17-3.89 2.459-8.233.864-10.623-1.651-1.239-1.305-1.667-3.097-1.808-4.369a11.92 11.92 0 01-.032-2.279c3.96-.258 6.14-2.392 7.285-4.199 1.356-2.138 1.713-4.466 1.713-5.407V7.023c0-.991 0-2.223-.939-3.803-.767-1.285-2.432-1.683-3.54-1.801V.814A.85.85 0 0014.286 0a.85.85 0 00-.848.814v3.025a.85.85 0 00.848.814.85.85 0 00.848-.814v-.712c.815.117 1.752.398 2.083.955.703 1.177.702 2.03.7 2.933v4.156c0 .576-.266 2.632-1.449 4.499-1.441 2.275-3.675 3.43-6.638 3.437h-.023c-2.975 0-5.216-1.152-6.661-3.437-1.184-1.866-1.451-3.924-1.451-4.499v-.66a.846.846 0 10-1.694 0v.656c0 .935.357 3.269 1.711 5.405 1.118 1.763 3.273 3.908 7.203 4.192-.107 1.389-.144 5.234 2.305 7.824C13.247 30.725 16.118 32 18.918 32a9.35 9.35 0 005.061-1.495c4.306-2.723 4.451-7.219 4.378-9.583a7.8 7.8 0 001.746-1.482c.408-.471.738-.993.841-1.621.259-1.531-.977-2.78-2.566-2.316z" fill="#FFCA61"></path></svg>