<svg xmlns:xlink="http://www.w3.org/1999/xlink" data-v-6579759f="" xmlns="http://www.w3.org/2000/svg" fill-rule="evenodd" viewBox="0 0 24 24" class="col-auto" width="24"  height="24" ><path d="M13.152 8.3a.625.625 0 01.882-.064c.21.182.574.432 1.054.762l.026.017a29.47 29.47 0 011.562 1.13c.526.415 1.049.881 1.444 1.378.389.487.713 1.076.713 1.727v4.186l2.395 3.592a.625.625 0 11-1.04.694l-2.5-3.75a.624.624 0 01-.105-.347V13.25c0-.237-.124-.552-.44-.948-.309-.388-.746-.785-1.242-1.176a28.318 28.318 0 00-1.496-1.08l-.077-.054-1.112-.811a.625.625 0 01-.064-.882zm-2.356 2.78a1.71 1.71 0 011.835.343l3.018 2.414a.625.625 0 11-.781.976l-3.042-2.433a.625.625 0 01-.051-.046.459.459 0 10-.65.649l.027.028 2.942 3.334c.1.114.156.261.156.413v2.084c0 .111.044.292.16.539.112.236.267.486.43.72a8.753 8.753 0 00.64.803l.01.01.001.002a.625.625 0 01-.916.85l.458-.424-.458.425v-.001l-.002-.001-.004-.005-.014-.015a7.214 7.214 0 01-.22-.254 9.876 9.876 0 01-.518-.672 6.29 6.29 0 01-.537-.906c-.148-.314-.28-.691-.28-1.071v-1.847l-2.774-3.144a1.71 1.71 0 01.57-2.772z" fill="#CCC7C1"></path> <path d="M4.875 3.25a.625.625 0 00-.625.625v15a.625.625 0 00.625.625h7.498a.633.633 0 00.627-.646.625.625 0 111.25-.025 1.881 1.881 0 01-1.871 1.92H4.875A1.875 1.875 0 013 18.876v-15A1.875 1.875 0 014.875 2h7.5a1.875 1.875 0 011.875 1.875v9.167a.625.625 0 01-1.25 0V3.875a.625.625 0 00-.625-.625h-7.5zm4.707 6.578A1.8 1.8 0 008.53 9.5h-.002a1.875 1.875 0 00-.394 3.706.625.625 0 11-.268 1.221A3.125 3.125 0 018.52 8.25a3.05 3.05 0 011.78.555.625.625 0 01-.719 1.023zM6.125 4.292c.345 0 .625.28.625.625v1.25a.625.625 0 11-1.25 0v-1.25c0-.346.28-.625.625-.625zm5 12.083c.345 0 .625.28.625.625v.833a.625.625 0 01-1.25 0V17c0-.345.28-.625.625-.625z" fill="#CCC7C1"></path></svg>