<svg xmlns:xlink="http://www.w3.org/1999/xlink" data-v-6579759f="" xmlns="http://www.w3.org/2000/svg" fill-rule="evenodd" viewBox="0 0 24 24" class="col-auto" width="24"  height="24" ><path d="M9.223 6.223a3.75 3.75 0 115.303 5.303 3.75 3.75 0 01-5.303-5.303zm2.652.152a2.5 2.5 0 100 5 2.5 2.5 0 000-5zm0-3.125A5.625 5.625 0 006.25 8.875c0 .588.227 1.475.643 2.566.409 1.073.973 2.277 1.59 3.474a68.36 68.36 0 003.392 5.835l-.52.346.52-.346.52.346-.52-.346a68.25 68.25 0 003.392-5.835l1.59-3.474c.415-1.09.643-1.978.643-2.566a5.625 5.625 0 00-5.625-5.625zm0-1.25A6.875 6.875 0 005 8.875c0 .83.301 1.899.725 3.011.431 1.132 1.018 2.382 1.646 3.602 1.256 2.44 2.7 4.804 3.462 5.953a1.25 1.25 0 002.083 0c.762-1.149 2.207-3.514 3.463-5.953l1.646-3.601c.424-1.114.725-2.181.725-3.012A6.875 6.875 0 0011.875 2z" fill="#CCC7C1"></path></svg>