<svg xmlns:xlink="http://www.w3.org/1999/xlink" data-v-2a0056a2="" xmlns="http://www.w3.org/2000/svg" viewBox="0 0 24 24" class="fill-primary svg-16 mr-2" width="24"  height="24" ><path d="M12.646 2.396L15.62 8.29l5.724.567a.715.715 0 01.444 1.221l-4.71 4.67 1.746 6.345a.722.722 0 01-1.023.83l-5.803-2.873-5.795 2.87a.723.723 0 01-1.023-.83l1.746-6.346-4.714-4.67a.715.715 0 01.444-1.22l5.724-.568 2.97-5.889a.728.728 0 011.296 0z" fill="#4E2096"></path> <path d="M15.475 9.745a1.463 1.463 0 01-1.162-.797l-2.315-4.587-2.311 4.583a1.463 1.463 0 01-1.162.798l-4.154.411 3.585 3.55c.376.373.521.919.381 1.429l-1.306 4.744 4.317-2.138c.41-.203.89-.203 1.3 0l4.324 2.142-1.306-4.745c-.14-.51.006-1.055.381-1.428l3.582-3.55-4.154-.412zm5.283-.707zM5.18 21.088l1.746-6.345-4.714-4.67a.715.715 0 01.444-1.22l5.724-.568 2.97-5.889a.728.728 0 011.296 0L15.62 8.29l5.724.567a.715.715 0 01.444 1.221l-4.71 4.67 1.746 6.345a.722.722 0 01-1.023.83l-5.803-2.873-5.795 2.87a.723.723 0 01-1.023-.83zM2.79 10.31h-.013.012z" fill-rule="evenodd" fill="#4E2096"></path></svg>