<svg xmlns:xlink="http://www.w3.org/1999/xlink" xmlns="http://www.w3.org/2000/svg" fill="none" viewBox="0 0 28 28" width="28"  height="28" ><path d="m0 14c0-7.73199 6.26801-14 14-14 7.732 0 14 6.26801 14 14 0 7.732-6.268 14-14 14-7.73199 0-14-6.268-14-14z" fill="#43bceb"/><path d="m13.5807 11.3794.0294.4844-.4897-.0593c-1.7822-.2274-3.33927-.9985-4.66129-2.29362l-.64632-.64262-.16647.47455c-.35254 1.05789-.12731 2.17499.60715 2.92639.39171.4152.30357.4745-.37213.2274-.23502-.0791-.44067-.1385-.46025-.1088-.06855.0692.16647.9689.35253 1.3248.25461.4943.77363.9787 1.34161 1.2654l.47984.2274-.56798.0099c-.54839 0-.56798.0099-.50922.2175.19585.6426.96948 1.3248 1.83123 1.6214l.6072.2076-.5289.3163c-.78337.4548-1.70388.7119-2.6244.7316-.44067.0099-.803.0495-.803.0791 0 .0989 1.19471.6525 1.88999.87 2.08581.6426 4.56341.3658 6.42401-.7316 1.322-.781 2.644-2.3331 3.261-3.8359.3329-.8008.6659-2.2639.6659-2.9659 0-.4547.0294-.5141.5778-1.0578.3231-.3164.6267-.6624.6854-.76127.098-.18784.0882-.18784-.4112-.01977-.8324.29664-.9499.25704-.5386-.18784.3035-.31636.6659-.88977.6659-1.05784 0-.02966-.1469.01977-.3134.10875-.1763.09886-.568.24716-.8618.33613l-.5288.16807-.4798-.32625c-.2644-.17795-.6365-.37568-.8324-.435-.4994-.13841-1.2633-.11863-1.7137.03955-1.2241.44488-1.9977 1.59167-1.9096 2.84727z" fill="#fff"/></svg>